<?xml version="1.0" encoding="UTF-8" standalone="no"?>
<svg
   xmlns:dc="http://purl.org/dc/elements/1.1/"
   xmlns:cc="http://creativecommons.org/ns#"
   xmlns:rdf="http://www.w3.org/1999/02/22-rdf-syntax-ns#"
   xmlns:svg="http://www.w3.org/2000/svg"
   xmlns="http://www.w3.org/2000/svg"
   viewBox="0 0 261.33334 45.333332"
   height="45.333332"
   width="261.33334"
   xml:space="preserve"
   id="svg2"
   version="1.1"><metadata
     id="metadata8"><rdf:RDF><cc:Work
         rdf:about=""><dc:format>image/svg+xml</dc:format><dc:type
           rdf:resource="http://purl.org/dc/dcmitype/StillImage" /></cc:Work></rdf:RDF></metadata><defs
     id="defs6"><clipPath
       id="clipPath18"
       clipPathUnits="userSpaceOnUse"><path
         id="path16"
         d="M 0,34 H 196 V 0 H 0 Z" /></clipPath></defs><g
     transform="matrix(1.3333333,0,0,-1.3333333,0,45.333333)"
     id="g10"><g
       id="g12"><g
         clip-path="url(#clipPath18)"
         id="g14"><g
           transform="translate(8.4687,32.2144)"
           id="g20"><path
             id="path22"
             style="fill:#000000;fill-opacity:1;fill-rule:nonzero;stroke:none"
             d="M 0,0 C 0.98,0 1.914,-0.14 2.801,-0.42 3.688,-0.7 4.33,-0.98 4.727,-1.26 l 0.595,-0.421 1.016,1.366 h 0.175 l 0.56,-6.723 H 6.828 C 6.594,-5.381 5.905,-3.829 4.762,-2.381 3.618,-0.934 2.031,-0.21 0,-0.21 c -1.331,0 -2.393,-0.397 -3.187,-1.19 -0.793,-0.794 -1.19,-1.775 -1.19,-2.942 0,-1.19 0.426,-2.194 1.278,-3.011 0.852,-0.817 1.879,-1.483 3.081,-1.996 1.203,-0.514 2.405,-1.063 3.607,-1.646 1.202,-0.584 2.229,-1.406 3.081,-2.468 0.852,-1.063 1.279,-2.376 1.279,-3.94 0,-2.194 -0.795,-3.898 -2.382,-5.112 -1.588,-1.214 -3.525,-1.82 -5.812,-1.82 -1.144,0 -2.23,0.157 -3.257,0.472 -1.027,0.315 -1.774,0.636 -2.241,0.963 l -0.665,0.455 -1.085,-1.365 h -0.14 l -0.35,7.283 h 0.21 c 0.186,-2.125 0.921,-3.922 2.206,-5.392 1.283,-1.471 3.057,-2.206 5.322,-2.206 1.751,0 3.099,0.455 4.044,1.366 0.946,0.91 1.418,2.134 1.418,3.676 0,1.097 -0.297,2.054 -0.893,2.871 -0.595,0.817 -1.336,1.447 -2.223,1.891 -0.888,0.443 -1.844,0.916 -2.872,1.418 -1.027,0.502 -1.984,0.992 -2.871,1.471 -0.887,0.477 -1.628,1.166 -2.223,2.066 -0.595,0.898 -0.893,1.954 -0.893,3.168 0,1.821 0.642,3.309 1.926,4.465 C -3.549,-0.578 -1.938,0 0,0" /></g><g
           transform="translate(24.9785,8.1582)"
           id="g24"><path
             id="path26"
             style="fill:#000000;fill-opacity:1;fill-rule:nonzero;stroke:none"
             d="m 0,0 c 1.797,0 3.064,0.736 3.799,2.207 0.736,1.471 1.103,3.594 1.103,6.373 0,2.567 -0.321,4.581 -0.963,6.04 -0.642,1.458 -1.756,2.188 -3.344,2.188 -1.33,0 -2.44,-0.478 -3.326,-1.435 -0.888,-0.958 -1.331,-2.452 -1.331,-4.482 V 5.218 c 0,-1.751 0.368,-3.059 1.103,-3.921 C -2.224,0.432 -1.238,0 0,0 m 1.155,17.158 c 2.148,0 3.864,-0.788 5.148,-2.363 C 7.586,13.219 8.229,11.136 8.229,8.544 8.229,6.023 7.481,3.922 5.988,2.242 4.494,0.561 2.638,-0.279 0.42,-0.279 c -1.774,0 -3.269,0.793 -4.482,2.381 v -6.688 c 0,-1.447 0.134,-2.351 0.403,-2.715 0.268,-0.361 1.021,-0.577 2.259,-0.647 v -0.21 h -8.124 v 0.21 c 1.12,0.094 1.815,0.327 2.083,0.7 0.268,0.374 0.403,1.25 0.403,2.627 v 17.402 c 0,1.167 -0.158,1.926 -0.473,2.276 -0.315,0.35 -1.01,0.526 -2.083,0.526 v 0.209 c 0.653,0.023 1.441,0.152 2.363,0.386 0.922,0.233 1.687,0.455 2.294,0.665 l 0.875,0.315 v -2.906 c 1.261,1.937 3,2.906 5.217,2.906" /></g><g
           transform="translate(39.3032,8.5439)"
           id="g28"><path
             id="path30"
             style="fill:#000000;fill-opacity:1;fill-rule:nonzero;stroke:none"
             d="m 0,0 c 1.237,0 2.252,0.42 3.046,1.261 0.793,0.84 1.191,1.937 1.191,3.291 V 8.474 L 0.21,7.248 C -2.008,6.595 -3.117,5.24 -3.117,3.187 -3.117,1.062 -2.078,0 0,0 M 9.91,1.61 10.084,1.575 C 10.061,1.505 10.038,1.424 10.014,1.331 9.991,1.237 9.903,1.062 9.752,0.806 9.6,0.548 9.431,0.327 9.244,0.14 9.057,-0.047 8.783,-0.222 8.421,-0.386 8.059,-0.548 7.668,-0.63 7.248,-0.63 5.427,-0.63 4.447,0.443 4.307,2.591 3.816,1.54 3.082,0.735 2.101,0.175 c -0.98,-0.561 -2.078,-0.84 -3.291,-0.84 -1.588,0 -2.825,0.338 -3.712,1.016 -0.888,0.675 -1.331,1.622 -1.331,2.836 0,1.027 0.403,1.814 1.208,2.363 0.806,0.549 2.084,1.08 3.835,1.594 l 5.427,1.575 v 2.661 c 0,1.774 -0.269,3.064 -0.805,3.87 -0.538,0.805 -1.471,1.208 -2.802,1.208 -1.82,0 -2.883,-0.958 -3.186,-2.872 -0.07,-0.42 -0.129,-0.724 -0.175,-0.91 -0.047,-0.187 -0.129,-0.421 -0.245,-0.7 -0.117,-0.281 -0.269,-0.479 -0.456,-0.596 -0.187,-0.117 -0.42,-0.175 -0.7,-0.175 -0.397,0 -0.718,0.146 -0.963,0.438 -0.245,0.292 -0.367,0.635 -0.367,1.033 0,1.027 0.547,1.96 1.645,2.801 1.097,0.84 2.79,1.26 5.077,1.26 3.969,0 5.953,-1.587 5.953,-4.761 V 2.382 C 7.213,1.681 7.306,1.19 7.493,0.911 7.68,0.63 8.006,0.49 8.474,0.49 c 0.326,0 0.612,0.093 0.858,0.281 0.245,0.186 0.402,0.373 0.472,0.56 z" /></g><g
           transform="translate(53.6978,25.3516)"
           id="g32"><path
             id="path34"
             style="fill:#000000;fill-opacity:1;fill-rule:nonzero;stroke:none"
             d="m 0,0 v -4.587 c 0.373,1.307 0.939,2.392 1.698,3.256 0.759,0.864 1.698,1.296 2.819,1.296 0.583,0 1.091,-0.146 1.524,-0.438 0.431,-0.292 0.647,-0.706 0.647,-1.243 0,-0.444 -0.117,-0.8 -0.35,-1.068 -0.234,-0.268 -0.537,-0.403 -0.911,-0.403 -0.537,0 -1.015,0.338 -1.435,1.016 -0.42,0.677 -0.876,1.015 -1.366,1.015 -0.607,0 -1.155,-0.519 -1.646,-1.558 C 0.49,-3.753 0.245,-5.252 0.245,-7.213 v -6.023 c 0,-1.518 0.134,-2.469 0.403,-2.854 0.268,-0.385 1.021,-0.613 2.258,-0.682 v -0.175 h -8.123 v 0.175 c 1.143,0.092 1.843,0.337 2.101,0.735 0.256,0.396 0.385,1.318 0.385,2.766 v 8.859 c 0,1.19 -0.152,1.954 -0.456,2.293 -0.303,0.338 -1.003,0.508 -2.1,0.508 v 0.21 c 0.653,0.023 1.418,0.152 2.293,0.385 0.875,0.234 1.593,0.455 2.154,0.666 z" /></g><g
           transform="translate(64.5557,28.9229)"
           id="g36"><path
             id="path38"
             style="fill:#000000;fill-opacity:1;fill-rule:nonzero;stroke:none"
             d="M 0,0 V -4.132 H 4.657 V -4.377 H 0 v -12.535 c 0,-2.124 0.77,-3.187 2.311,-3.187 0.537,0 1.044,0.123 1.523,0.368 0.478,0.246 0.823,0.496 1.033,0.752 l 0.316,0.351 0.104,-0.176 c -0.117,-0.163 -0.286,-0.367 -0.508,-0.612 -0.221,-0.245 -0.712,-0.577 -1.47,-0.998 -0.759,-0.42 -1.559,-0.63 -2.399,-0.63 -2.591,0 -3.887,1.318 -3.887,3.957 v 12.71 h -1.82 v 0.175 c 0.91,0.21 1.82,0.718 2.731,1.524 0.91,0.805 1.541,1.698 1.891,2.678 z" /></g><g
           transform="translate(75.6836,8.5439)"
           id="g40"><path
             id="path42"
             style="fill:#000000;fill-opacity:1;fill-rule:nonzero;stroke:none"
             d="M 0,0 C 1.237,0 2.252,0.42 3.046,1.261 3.84,2.101 4.237,3.198 4.237,4.552 V 8.474 L 0.21,7.248 C -2.008,6.595 -3.116,5.24 -3.116,3.187 -3.116,1.062 -2.078,0 0,0 M 9.909,1.61 10.085,1.575 C 10.062,1.505 10.037,1.424 10.015,1.331 9.991,1.237 9.903,1.062 9.752,0.806 9.6,0.548 9.431,0.327 9.244,0.14 9.058,-0.047 8.782,-0.222 8.421,-0.386 8.059,-0.548 7.669,-0.63 7.248,-0.63 5.428,-0.63 4.447,0.443 4.307,2.591 3.816,1.54 3.081,0.735 2.101,0.175 1.12,-0.386 0.022,-0.665 -1.19,-0.665 c -1.588,0 -2.826,0.338 -3.712,1.016 -0.888,0.675 -1.33,1.622 -1.33,2.836 0,1.027 0.402,1.814 1.208,2.363 0.804,0.549 2.083,1.08 3.834,1.594 l 5.427,1.575 v 2.661 c 0,1.774 -0.268,3.064 -0.805,3.87 -0.537,0.805 -1.471,1.208 -2.802,1.208 -1.82,0 -2.883,-0.958 -3.187,-2.872 -0.069,-0.42 -0.128,-0.724 -0.174,-0.91 -0.047,-0.187 -0.128,-0.421 -0.246,-0.7 -0.117,-0.281 -0.268,-0.479 -0.455,-0.596 -0.187,-0.117 -0.42,-0.175 -0.7,-0.175 -0.397,0 -0.718,0.146 -0.963,0.438 -0.245,0.292 -0.367,0.635 -0.367,1.033 0,1.027 0.548,1.96 1.646,2.801 1.096,0.84 2.789,1.26 5.077,1.26 3.968,0 5.952,-1.587 5.952,-4.761 V 2.382 C 7.213,1.681 7.306,1.19 7.493,0.911 7.68,0.63 8.007,0.49 8.474,0.49 c 0.327,0 0.613,0.093 0.858,0.281 0.245,0.186 0.402,0.373 0.473,0.56 z" /></g><g
           transform="translate(100.0186,31.4795)"
           id="g44"><path
             id="path46"
             style="fill:#000000;fill-opacity:1;fill-rule:nonzero;stroke:none"
             d="m 0,0 h -2.486 v -12.221 h 2.346 c 1.891,0 3.315,0.566 4.272,1.699 0.957,1.131 1.435,2.643 1.435,4.534 C 5.567,-1.996 3.712,0 0,0 m 0.035,-12.466 h -2.521 v -6.933 c 0,-1.518 0.14,-2.475 0.421,-2.872 0.28,-0.396 1.038,-0.594 2.275,-0.594 v -0.21 h -9.033 v 0.175 c 1.423,0.069 2.275,0.268 2.555,0.594 0.281,0.327 0.421,1.296 0.421,2.907 v 15.932 c 0,1.611 -0.146,2.579 -0.438,2.906 -0.292,0.327 -1.138,0.526 -2.538,0.596 V 0.21 H 0 c 2.895,0 5.153,-0.531 6.775,-1.593 1.622,-1.063 2.435,-2.574 2.435,-4.535 0,-2.008 -0.876,-3.601 -2.627,-4.779 -1.75,-1.179 -3.934,-1.769 -6.548,-1.769" /></g><g
           transform="translate(113.2578,34)"
           id="g48"><path
             id="path50"
             style="fill:#000000;fill-opacity:1;fill-rule:nonzero;stroke:none"
             d="m 0,0 v -21.92 c 0,-1.447 0.128,-2.369 0.386,-2.766 0.256,-0.397 0.944,-0.642 2.065,-0.735 v -0.175 h -7.669 v 0.175 c 1.051,0.069 1.698,0.298 1.944,0.683 0.245,0.384 0.368,1.324 0.368,2.818 v 17.439 c 0,1.236 -0.141,2.036 -0.421,2.398 -0.279,0.362 -0.98,0.542 -2.101,0.542 V -1.4 c 0.7,0.023 1.5,0.151 2.399,0.385 0.898,0.233 1.629,0.467 2.188,0.7 z" /></g><g
           transform="translate(120.9287,8.5439)"
           id="g52"><path
             id="path54"
             style="fill:#000000;fill-opacity:1;fill-rule:nonzero;stroke:none"
             d="m 0,0 c 1.237,0 2.253,0.42 3.047,1.261 0.793,0.84 1.19,1.937 1.19,3.291 V 8.474 L 0.21,7.248 C -2.008,6.595 -3.116,5.24 -3.116,3.187 -3.116,1.062 -2.077,0 0,0 M 9.91,1.61 10.085,1.575 C 10.062,1.505 10.037,1.424 10.015,1.331 9.991,1.237 9.903,1.062 9.752,0.806 9.601,0.548 9.431,0.327 9.244,0.14 9.058,-0.047 8.783,-0.222 8.421,-0.386 8.06,-0.548 7.669,-0.63 7.249,-0.63 5.428,-0.63 4.447,0.443 4.307,2.591 3.816,1.54 3.082,0.735 2.102,0.175 1.121,-0.386 0.023,-0.665 -1.19,-0.665 c -1.588,0 -2.826,0.338 -3.712,1.016 -0.888,0.675 -1.33,1.622 -1.33,2.836 0,1.027 0.402,1.814 1.208,2.363 0.805,0.549 2.084,1.08 3.834,1.594 l 5.427,1.575 v 2.661 c 0,1.774 -0.268,3.064 -0.805,3.87 -0.537,0.805 -1.471,1.208 -2.801,1.208 -1.821,0 -2.884,-0.958 -3.187,-2.872 -0.07,-0.42 -0.129,-0.724 -0.175,-0.91 -0.047,-0.187 -0.128,-0.421 -0.245,-0.7 -0.118,-0.281 -0.269,-0.479 -0.455,-0.596 -0.187,-0.117 -0.421,-0.175 -0.701,-0.175 -0.396,0 -0.718,0.146 -0.963,0.438 -0.245,0.292 -0.367,0.635 -0.367,1.033 0,1.027 0.548,1.96 1.646,2.801 1.096,0.84 2.789,1.26 5.077,1.26 3.968,0 5.953,-1.587 5.953,-4.761 V 2.382 C 7.214,1.681 7.307,1.19 7.494,0.911 7.68,0.63 8.007,0.49 8.474,0.49 c 0.327,0 0.613,0.093 0.858,0.281 0.245,0.186 0.402,0.373 0.473,0.56 z" /></g><g
           transform="translate(137.6455,25.1416)"
           id="g56"><path
             id="path58"
             style="fill:#000000;fill-opacity:1;fill-rule:nonzero;stroke:none"
             d="m 0,0 c -2.568,0 -4.026,-2.113 -4.377,-6.338 h 7.423 c 0.21,0.56 0.315,1.26 0.315,2.101 C 3.361,-1.413 2.241,0 0,0 m 0.945,-16.808 c 1.401,0 2.533,0.332 3.397,0.998 0.863,0.665 1.47,1.43 1.821,2.293 h 0.21 c -0.374,-0.957 -1.051,-1.82 -2.031,-2.59 -0.981,-0.771 -2.311,-1.156 -3.991,-1.156 -2.476,0 -4.454,0.776 -5.936,2.328 -1.482,1.553 -2.224,3.625 -2.224,6.216 0,2.497 0.747,4.604 2.242,6.32 1.493,1.716 3.349,2.574 5.567,2.574 1.961,0 3.513,-0.59 4.657,-1.768 1.144,-1.179 1.751,-2.854 1.821,-5.025 h -10.89 c -0.047,-0.887 -0.07,-1.599 -0.07,-2.136 0,-5.37 1.809,-8.054 5.427,-8.054" /></g><g
           transform="translate(149.5293,25.3164)"
           id="g60"><path
             id="path62"
             style="fill:#000000;fill-opacity:1;fill-rule:nonzero;stroke:none"
             d="m 0,0 c 0.7,0 1.377,-0.087 2.031,-0.263 0.653,-0.174 1.12,-0.344 1.401,-0.508 l 0.455,-0.245 0.734,0.631 h 0.141 l 0.42,-4.307 H 4.972 C 4.785,-3.501 4.277,-2.446 3.449,-1.523 2.62,-0.601 1.517,-0.14 0.14,-0.14 H 0 c -0.98,-0.024 -1.751,-0.28 -2.312,-0.771 -0.559,-0.489 -0.839,-1.214 -0.839,-2.171 0,-0.817 0.308,-1.522 0.927,-2.118 0.619,-0.595 1.366,-1.091 2.242,-1.488 0.875,-0.397 1.755,-0.817 2.643,-1.26 0.887,-0.444 1.64,-1.051 2.258,-1.822 0.619,-0.769 0.929,-1.693 0.929,-2.765 0,-1.494 -0.503,-2.692 -1.506,-3.59 -1.004,-0.898 -2.288,-1.348 -3.853,-1.348 -0.747,0 -1.494,0.118 -2.24,0.35 -0.748,0.233 -1.308,0.467 -1.681,0.701 l -0.525,0.315 -0.91,-1.191 h -0.141 l -0.349,5.112 h 0.21 c 0.373,-1.377 1.038,-2.573 1.996,-3.588 0.957,-1.016 2.171,-1.524 3.64,-1.524 1.121,0 1.979,0.263 2.574,0.788 0.596,0.526 0.894,1.278 0.894,2.258 0,0.772 -0.305,1.447 -0.911,2.031 -0.608,0.584 -1.343,1.08 -2.206,1.489 -0.863,0.408 -1.728,0.845 -2.591,1.313 -0.864,0.466 -1.6,1.103 -2.206,1.908 -0.607,0.805 -0.91,1.757 -0.91,2.854 0,1.377 0.472,2.497 1.418,3.362 C -2.504,-0.432 -1.354,0 0,0" /></g><g
           transform="translate(163.2939,25.1416)"
           id="g64"><path
             id="path66"
             style="fill:#000000;fill-opacity:1;fill-rule:nonzero;stroke:none"
             d="m 0,0 c -2.568,0 -4.027,-2.113 -4.377,-6.338 h 7.423 c 0.21,0.56 0.314,1.26 0.314,2.101 C 3.36,-1.413 2.24,0 0,0 m 0.945,-16.808 c 1.401,0 2.533,0.332 3.397,0.998 0.863,0.665 1.47,1.43 1.82,2.293 h 0.21 c -0.373,-0.957 -1.05,-1.82 -2.03,-2.59 -0.982,-0.771 -2.312,-1.156 -3.992,-1.156 -2.475,0 -4.454,0.776 -5.935,2.328 -1.483,1.553 -2.224,3.625 -2.224,6.216 0,2.497 0.747,4.604 2.242,6.32 1.493,1.716 3.348,2.574 5.567,2.574 1.96,0 3.513,-0.59 4.656,-1.768 1.144,-1.179 1.751,-2.854 1.822,-5.025 h -10.89 c -0.047,-0.887 -0.07,-1.599 -0.07,-2.136 0,-5.37 1.808,-8.054 5.427,-8.054" /></g><g
           transform="translate(184.999,12.0801)"
           id="g68"><path
             id="path70"
             style="fill:#000000;fill-opacity:1;fill-rule:nonzero;stroke:none"
             d="m 0,0 c 0,-1.447 0.128,-2.369 0.385,-2.766 0.257,-0.397 0.957,-0.642 2.101,-0.735 v -0.175 h -7.738 v 0.175 c 1.05,0.069 1.691,0.298 1.926,0.683 0.233,0.384 0.35,1.324 0.35,2.818 v 7.284 c 0,1.867 -0.269,3.215 -0.805,4.044 -0.537,0.828 -1.401,1.243 -2.592,1.243 -1.19,0 -2.206,-0.42 -3.046,-1.26 C -10.26,10.47 -10.68,9.28 -10.68,7.739 V 0 c 0,-1.447 0.128,-2.369 0.385,-2.766 0.257,-0.397 0.946,-0.642 2.066,-0.735 v -0.175 h -7.738 v 0.175 c 1.05,0.069 1.698,0.298 1.944,0.683 0.245,0.384 0.368,1.324 0.368,2.818 v 8.719 c 0,1.191 -0.158,1.972 -0.474,2.346 -0.314,0.373 -1.01,0.56 -2.083,0.56 v 0.211 c 0.653,0.023 1.441,0.151 2.363,0.385 0.922,0.233 1.687,0.467 2.294,0.7 l 0.875,0.315 V 9.98 c 1.238,2.171 3.117,3.256 5.638,3.256 1.634,0 2.883,-0.414 3.746,-1.242 C -0.433,11.165 0,9.945 0,8.334 Z" /></g><g
           transform="translate(190.2266,28.9229)"
           id="g72"><path
             id="path74"
             style="fill:#000000;fill-opacity:1;fill-rule:nonzero;stroke:none"
             d="M 0,0 V -4.132 H 4.657 V -4.377 H 0 v -12.535 c 0,-2.124 0.771,-3.187 2.312,-3.187 0.536,0 1.043,0.123 1.523,0.368 0.477,0.246 0.822,0.496 1.032,0.752 l 0.316,0.351 0.105,-0.176 c -0.117,-0.163 -0.286,-0.367 -0.508,-0.612 -0.222,-0.245 -0.713,-0.577 -1.47,-0.998 -0.759,-0.42 -1.559,-0.63 -2.399,-0.63 -2.592,0 -3.887,1.318 -3.887,3.957 v 12.71 h -1.821 v 0.175 c 0.91,0.21 1.821,0.718 2.732,1.524 0.91,0.805 1.541,1.698 1.89,2.678 z" /></g></g></g></g></svg>